# Blender 5.2.0 LTS
# www.blender.org
mtllib board.mtl
o board
v 282.330231 25.000004 171.632355
v 300.176239 25.000004 169.282883
v 287.290222 25.000004 209.307281
v 305.136230 25.000004 206.957809
v 321.281281 26.192934 241.141190
v 305.323700 26.600988 232.642456
v 301.605591 26.153545 232.423370
v 295.484344 27.932005 233.510986
v 289.058746 27.674074 236.098587
v 280.944183 23.503393 248.115082
v 283.842468 27.738955 270.054260
v 306.796265 27.727545 280.053528
v 325.281952 26.389719 259.458801
v 519.077881 25.000004 210.633591
v 480.827423 25.000004 67.909149
v 300.246643 25.000004 112.079330
v 267.818634 25.000004 116.266891
v 117.680969 25.000004 119.605255
v 117.680969 25.000004 266.667694
v 274.924255 25.000004 288.625214
v 336.665131 25.000004 279.159698
v 268.767120 25.000004 130.303940
v 270.174255 25.000004 151.256744
v 126.365959 25.000004 151.256744
v 126.365959 25.000004 130.303940
v 259.864014 25.000004 257.101135
v 126.365959 25.000004 257.101135
v 126.365959 25.000004 159.238754
v 264.563995 25.000004 159.238754
v 264.563995 25.000004 181.101120
v 255.064011 25.000004 181.101120
v 255.064011 25.000004 200.101135
v 260.063995 25.000004 200.101135
v 260.063995 25.000004 219.101135
v 250.264008 25.000004 219.101135
v 250.264008 25.000004 238.101135
v 259.864014 25.000004 238.101135
v 480.617188 25.000004 96.872849
v 331.462769 25.000004 136.846558
v 326.037994 25.000004 116.604973
v 475.192413 25.000004 76.631264
v 339.001862 25.000004 166.688248
v 333.101532 25.000004 144.672287
v 482.683777 25.000004 104.583931
v 508.348602 25.000004 200.347366
v 356.544739 25.000004 241.031113
v 351.613342 25.000004 222.630478
v 340.022369 25.000004 225.736877
v 335.078033 25.000004 207.287933
v 344.254211 25.000004 204.828705
v 339.309845 25.000004 186.379745
v 334.770050 25.000004 187.596420
v 329.825684 25.000004 169.147491
v 193.114990 25.000004 257.101135
v 121.842346 23.581337 262.901093
v 187.838562 23.869333 262.198883
v 196.302643 25.000004 277.646454
v 267.683655 23.634420 272.620422
v 432.446686 25.000004 220.689240
v 345.884094 26.026340 260.463898
v 512.932312 26.295563 203.924088
v 437.940277 23.043892 226.064545
v 427.871521 25.000004 244.896652
v 495.516174 25.000004 152.465637
v 499.952637 25.000004 139.271362
v 500.153534 24.306061 158.364594
v 511.383026 23.324762 202.116455
v 482.455017 22.886906 85.916367
v 518.056213 22.893255 207.016647
v 506.056274 23.005203 178.782501
v 120.600723 26.707010 124.783463
v 197.566544 25.000004 130.303940
v 478.478455 23.742323 71.945374
v 403.080444 23.533047 92.845291
v 390.537048 25.000004 89.994240
v 400.615234 25.000004 96.618118
v 310.958069 23.404045 115.108269
v 268.362640 27.593643 123.980766
v 196.635147 23.337666 124.984291
v 192.749802 25.000004 117.936073
v 407.892670 25.000004 124.628113
v 195.464996 25.000004 159.238754
v 406.039978 25.000004 116.859703
v 480.845825 26.159859 100.430565
v 267.392120 25.860447 154.393295
v 331.696442 24.264341 140.577499
v 407.545929 23.500446 119.629906
v 198.270111 25.000004 151.256744
v 126.017349 26.611120 156.328644
v 195.124603 26.940548 153.677658
v 120.979790 26.441008 139.750000
v 117.680969 25.000004 193.136475
v 123.020119 23.293186 213.550949
v 126.365959 25.000004 208.169952
v 123.719482 24.272310 259.464233
v 120.088928 23.703949 264.343658
v 125.105949 26.691488 236.577850
v 300.440247 23.254669 134.113113
v 269.470673 25.000004 140.780350
v 299.541473 26.460938 144.853119
v 315.398193 22.840944 125.681046
v 284.684235 27.042692 120.313309
v 315.975555 22.587620 158.020142
v 285.992981 26.308239 161.471802
v 300.928131 23.582298 148.636353
v 302.656219 25.000004 188.120346
v 318.260406 26.629322 180.121796
v 320.744568 25.973204 198.260895
v 291.253235 25.000004 170.457626
v 284.810211 25.000004 190.469818
v 336.051697 25.000004 155.680267
v 334.413818 25.000004 167.917877
v 273.014435 26.696640 176.736374
v 273.220856 23.698006 165.612076
v 123.069160 23.470215 127.280457
v 123.051208 22.988321 134.442841
v 122.636902 26.413952 148.935074
v 117.680969 25.000004 229.902069
v 159.740463 25.000004 257.101135
v 255.164001 25.000004 219.101105
v 261.025848 26.474367 227.565170
v 259.864014 25.000004 247.601135
v 271.520630 23.247820 252.899826
v 269.975616 23.966866 242.015305
v 338.407867 23.351057 194.247040
v 341.782013 25.000004 195.604218
v 330.942078 26.219080 156.164581
v 445.288208 25.000004 114.606018
v 123.412010 23.216070 184.980392
v 126.365952 25.000004 183.704346
v 125.154953 26.171770 257.719513
v 222.829453 23.679150 259.082672
v 235.613449 25.000004 283.135803
v 256.856659 26.360556 227.916489
v 250.263992 25.000004 228.601135
v 337.039948 25.000004 186.988098
v 332.297882 25.000004 178.371964
v 501.932373 25.000004 176.406494
v 230.014496 25.000004 159.238754
v 262.608337 26.019211 264.036316
v 305.794708 25.000004 283.892456
v 339.681610 23.807898 241.219696
v 330.564819 23.592932 233.918625
v 255.064026 25.000004 238.101120
v 303.896210 25.000004 197.539062
v 326.114349 25.875120 183.909256
v 314.246979 23.916590 168.936234
v 325.462799 22.690989 150.560898
v 264.563995 25.000004 170.169952
v 282.613617 26.090488 164.277924
v 276.812012 26.936281 156.460266
v 394.495697 25.000004 230.860184
v 353.738251 26.833624 250.323105
v 296.213257 25.000004 208.132538
v 276.555878 25.724522 194.636261
v 273.865997 26.606636 203.281723
v 261.459290 25.741880 189.958817
v 274.202667 25.844809 213.658066
v 368.751373 25.000004 126.853134
v 480.484741 22.847147 102.060944
v 477.904785 25.000004 86.752060
v 314.563812 23.670097 136.252045
v 269.822479 25.000004 146.018555
v 490.390045 25.000004 103.590263
v 490.213135 26.292789 130.864410
v 510.094360 24.224548 201.781174
v 397.367310 26.384520 233.851547
v 161.966248 25.000004 130.303940
v 349.308350 23.887016 232.336777
v 382.268341 25.000004 262.028198
v 259.813995 25.000004 181.101120
v 274.216309 26.244713 229.811310
v 272.670624 23.580631 236.919693
v 354.079071 25.000004 231.830780
v 290.626831 26.891672 222.292770
v 265.789612 23.687647 156.508194
v 318.013153 23.868687 146.720642
v 316.800995 26.320797 140.986954
v 333.333405 24.399281 142.916962
v 445.141144 26.423801 111.242950
v 480.121216 25.675604 82.601234
v 481.501007 26.363096 94.994797
v 476.554291 27.816803 74.350388
v 365.075775 26.883106 105.482765
v 345.391815 25.000004 101.036781
v 328.750397 25.000004 126.725777
v 290.110504 25.975374 283.594269
v 322.524292 26.021927 278.740295
v 330.971008 24.269341 270.073059
v 341.042969 26.738213 252.329971
v 162.318024 25.000004 151.256744
v 258.391052 23.107645 191.642334
v 255.064011 25.000004 190.601120
v 345.817841 25.000004 224.183685
v 437.903778 25.000004 86.624687
v 320.493134 23.436466 117.170670
v 324.273407 26.034384 130.432739
v 276.397308 23.252907 126.921059
v 284.032623 25.000004 114.173103
v 126.365952 25.000004 140.780350
v 126.936440 24.187664 156.775970
v 230.185089 25.730097 157.813660
v 272.561615 25.640537 263.165588
v 279.081635 26.882261 278.627777
v 257.563995 25.000004 200.101135
v 337.550232 25.000004 216.512405
v 281.715393 26.803713 260.317047
v 305.289276 23.116634 232.530396
v 327.643768 27.531399 192.973572
v 307.261169 26.565187 219.793777
v 320.949219 26.726669 216.348648
v 323.521484 27.282246 230.087524
v 260.063995 25.000004 209.601135
v 269.303650 25.626896 127.238487
v 163.636200 26.850973 126.873230
v 155.215378 25.000004 118.770660
v 284.002869 27.683340 242.102386
v 319.578186 25.728277 206.702545
v 333.989441 23.428072 198.124832
v 339.666138 25.000004 206.058304
v 294.561890 26.511244 274.071014
v 316.054016 25.562588 268.552612
v 323.327454 23.100811 251.603485
v 314.239410 26.571457 235.835175
v 292.801025 25.668190 235.693008
v 298.917114 26.492466 235.213837
v 226.489502 25.000004 257.101135
v 122.326698 26.889462 263.192139
v 152.907486 24.016216 263.608582
v 156.991791 25.000004 272.157074
v 271.792511 26.779741 282.176300
v 229.734070 26.796984 274.560486
v 227.129395 22.899904 267.899231
v 193.843933 23.602243 269.376343
v 191.057281 27.866285 258.944794
v 157.133957 26.234461 258.411987
v 155.383011 25.846214 261.413391
v 470.397614 25.000004 210.518311
v 343.180084 22.556778 269.550415
v 514.444946 24.344160 206.129730
v 477.407776 26.400352 217.678452
v 473.474731 25.000004 227.765137
v 391.275421 25.829895 243.413162
v 387.351746 27.291048 251.483139
v 433.211914 25.833307 234.823502
v 434.681274 23.426313 222.341644
v 476.526123 24.228989 214.948547
v 471.826660 26.715624 214.259949
v 489.099976 25.000004 128.524780
v 509.515259 25.000004 174.952484
v 509.953369 23.223640 184.195023
v 512.532471 23.989342 203.792023
v 480.130768 26.056479 77.758377
v 519.326416 26.841234 210.774841
v 508.013947 25.712435 192.015198
v 502.651428 25.585638 168.771515
v 511.711517 26.731670 192.687088
v 501.823273 23.045019 164.922348
v 501.215576 23.458450 148.878647
v 489.623169 25.904030 112.876312
v 491.870972 25.788710 122.568871
v 119.074165 27.039948 120.557426
v 233.166855 25.000004 130.303940
v 479.468689 23.467026 70.761276
v 442.956787 26.410295 79.822899
v 435.682251 25.000004 78.951698
v 363.326599 25.000004 106.611542
v 306.148651 26.213680 113.725052
v 267.422211 26.543947 118.867165
v 231.661896 26.352453 120.282204
v 230.284241 25.000004 117.101486
v 157.206741 26.150852 121.448029
v 159.288834 23.898024 124.113976
v 195.662628 24.468765 120.985939
v 199.005585 26.712902 125.711327
v 233.495377 23.719545 127.146767
v 233.304260 27.431114 122.155418
v 351.876526 24.128597 101.981300
v 357.776245 26.312943 102.817169
v 396.373779 23.982147 90.814896
v 400.434326 23.430944 93.775688
v 438.779449 27.118221 84.281715
v 439.223999 26.180895 82.161171
v 370.497101 25.000004 134.650192
v 160.915482 25.000004 159.238754
v 443.328552 25.000004 106.866272
v 480.988068 25.762964 98.098679
v 269.099060 26.364651 152.886536
v 332.569824 26.769316 140.622955
v 369.698425 27.335394 127.754532
v 234.222168 25.000004 151.256744
v 125.398895 26.569635 152.292999
v 160.190201 26.123529 153.700302
v 231.821060 27.467789 155.357407
v 230.812515 27.093115 152.671005
v 195.612198 26.110241 153.092117
v 195.389618 26.549892 155.567520
v 162.145645 26.768631 155.232544
v 159.839767 26.517033 156.890656
v 443.763458 24.082518 109.037895
v 405.517212 26.795839 119.433159
v 443.172729 22.870403 111.339722
v 407.374023 23.168962 122.385399
v 368.328308 26.343437 129.778870
v 372.003204 23.543375 132.114761
v 119.686974 23.025990 130.802628
v 117.680969 25.000004 156.370865
v 119.237411 23.830395 240.874817
v 126.365952 25.000004 232.635544
v 122.230858 25.948917 260.774841
v 118.787025 26.384888 264.572235
v 122.325974 23.302397 249.579529
v 123.476830 23.675934 224.149200
v 125.420563 26.533129 221.402985
v 120.781357 26.530107 248.733444
v 121.798714 26.040390 176.425476
v 119.225044 23.729710 166.435516
v 120.610344 23.031649 202.644577
v 285.073029 24.224239 132.716797
v 269.118896 25.000004 135.542145
v 284.569733 25.988054 147.679596
v 308.419464 24.134190 117.909378
v 292.171692 27.217279 116.113548
v 284.632904 26.757673 142.515091
v 300.409058 22.524399 137.603302
v 283.971527 26.595861 138.258286
v 291.855225 25.842850 128.093170
v 307.353973 26.641874 129.679108
v 298.883392 26.854553 122.468002
v 308.905365 23.725304 163.070312
v 294.143066 22.846457 163.948257
v 286.500885 22.903500 149.379730
v 309.169464 26.168406 152.254089
v 293.078918 24.237774 155.107574
v 299.884949 23.770262 158.945251
v 301.416229 25.000004 178.701614
v 309.660187 27.768171 173.579178
v 312.612000 24.382875 201.441467
v 310.669037 23.169443 183.637558
v 309.837341 23.298603 192.822601
v 317.996826 23.379709 186.801010
v 304.171509 24.333267 220.403000
v 295.530609 26.120190 221.320602
v 287.683258 27.754061 223.996109
v 308.214233 23.045086 197.371475
v 321.407257 25.690962 176.564117
v 319.639008 25.948977 159.812790
v 334.462463 26.207428 159.374207
v 318.614044 26.396217 220.765778
v 278.156769 25.939505 187.333679
v 269.502777 26.302521 197.197876
v 268.264343 26.768764 209.239105
v 269.923828 24.215570 171.458359
v 282.180237 23.708706 166.457855
v 276.754456 26.615957 158.415497
v 286.850983 23.449825 153.533737
v 310.043732 23.458221 143.781265
v 356.823578 23.290207 132.964905
v 381.531036 26.486000 124.945343
v 481.836456 26.870178 90.089653
v 477.207306 27.427483 78.035789
v 450.639038 27.351263 81.234703
v 346.075562 23.608170 107.946579
v 317.800995 23.709478 122.325447
v 315.482147 27.380020 131.608490
v 310.452179 26.389458 137.776825
v 487.881714 23.483656 97.746910
v 503.694183 23.187315 184.497223
v 495.696899 24.095587 212.786804
v 277.435944 25.647306 120.448601
v 243.717255 27.044308 127.600464
v 147.549469 22.950325 126.433563
v 124.131462 22.967506 132.318161
v 125.418152 22.971243 146.234283
v 150.363129 23.585701 153.217987
v 120.542778 26.779396 149.470322
v 121.475410 25.974627 255.002182
v 140.189377 27.221085 258.620911
v 239.429138 24.199762 264.669922
v 270.117706 23.728796 273.017731
v 306.833282 23.725706 281.338135
v 340.892731 27.381939 260.608795
v 339.283295 23.641863 235.605331
v 370.269806 26.840933 260.826569
v 244.902847 23.208426 152.495178
v 259.991913 23.956623 187.134781
v 257.677673 27.348608 194.632233
v 258.655853 23.438126 225.608063
v 269.393097 25.847851 231.513641
v 254.093811 25.803230 231.285553
v 268.498505 26.865414 248.023117
v 349.170074 26.129047 229.205597
v 326.995911 24.156649 214.106674
v 323.703583 25.679867 199.082687
v 338.010223 26.285376 199.709702
v 339.360077 26.463854 192.138947
v 275.301910 24.004274 259.182770
v 275.680359 26.942097 243.057495
v 288.271179 23.229445 278.718292
v 324.113342 26.394484 273.786835
v 334.396271 25.986399 247.881805
v 324.251617 27.228399 234.626419
v 305.014221 27.115913 223.078293
v 245.503281 25.623947 279.730011
v 217.661575 23.500467 271.012573
v 166.772644 23.687918 269.981110
v 214.478516 23.404552 259.159088
v 167.764130 25.945080 260.079163
v 137.155411 23.803711 263.547546
v 379.416595 24.122492 242.706268
v 403.113678 23.641674 243.814392
v 460.760651 23.734421 227.542572
v 408.179932 23.294767 228.477615
v 460.959167 25.820831 216.898926
v 492.667816 23.865599 206.519440
v 510.101715 26.823215 198.167786
v 508.595490 26.461649 189.679428
v 496.249908 23.116770 147.015823
v 506.884613 23.850613 169.340195
v 493.643036 25.736897 127.395378
v 489.903931 26.651920 116.656723
v 144.446777 24.001949 121.858780
v 171.240692 24.001823 121.410889
v 218.767838 26.500774 120.675583
v 171.842346 23.181377 127.918205
v 221.406891 26.622826 125.848946
v 244.088379 24.172230 121.159470
v 332.658203 23.597145 106.081833
v 369.901550 23.763399 99.218277
v 425.874451 26.799377 84.132195
v 376.320618 25.788906 101.849586
v 426.953613 25.811266 87.044106
v 454.187683 26.574041 77.179657
v 244.089859 23.008064 157.888596
v 219.454773 25.999739 153.142181
v 172.055542 26.853212 150.987213
v 218.567322 23.815205 157.450546
v 171.765076 25.763027 156.597015
v 149.179871 23.416004 156.126343
v 457.397308 26.845451 103.091934
v 430.858368 24.167921 112.291962
v 456.850586 24.399893 108.122353
v 432.092010 26.272985 117.581543
v 382.421997 26.889875 130.109955
v 358.555756 26.409109 136.879547
v 124.978523 22.724432 239.684708
v 124.547493 24.065626 204.248123
v 121.176605 22.845724 243.296387
v 123.480240 27.173731 169.844040
v 120.860054 25.823788 181.427582
v 119.965828 23.359875 224.608673
v 278.807526 23.004833 146.337219
v 289.891479 24.134041 139.991089
v 278.067902 22.773787 133.736938
v 285.051788 25.599781 128.126892
v 300.767029 23.335356 124.202103
v 300.976196 23.922449 118.108307
v 315.206116 26.848492 150.647751
v 299.142578 26.907894 155.735306
v 301.481506 26.412386 162.264587
v 304.889191 23.245722 177.943848
v 314.778564 26.136093 187.540237
v 325.009949 23.319790 188.222458
v 279.176666 26.966192 221.630081
v 298.496582 26.370043 215.589478
v 295.636230 23.686501 226.276764
v 290.613342 25.623890 225.833618
vn 0.1257 0.9921 -0.0050
vn 0.0109 0.9942 -0.1073
vn -0.1257 0.9836 -0.1294
vn 0.3605 0.9328 0.0029
vn -0.1067 0.9882 0.1096
vn 0.0298 0.9896 0.1405
vn 0.1316 0.9900 -0.0515
vn -0.0366 0.9970 -0.0685
vn 0.0247 0.9839 -0.1771
vn -0.0699 0.9956 -0.0618
vn 0.0957 0.9852 -0.1419
vn 0.0080 0.9921 0.1254
vn -0.0058 0.9765 0.2155
vn 0.0854 0.9956 -0.0379
vn -0.0013 1.0000 0.0092
vn -0.0035 0.9988 0.0480
vn 0.0468 0.9919 -0.1179
vn -0.2147 0.9546 -0.2066
vn -0.0274 0.9927 -0.1179
vn -0.0976 0.9946 -0.0363
vn -0.1319 0.9704 -0.2022
vn -0.1256 0.9824 -0.1379
vn 0.2659 0.9557 -0.1263
vn 0.1727 0.9843 -0.0358
vn 0.0375 0.9894 0.1400
vn 0.1171 0.9890 0.0906
vn -0.0834 0.9961 -0.0301
vn -0.2142 0.9690 -0.1228
vn 0.0506 0.9936 -0.1013
vn -0.3956 0.9184 0.0098
vn 0.1058 0.9941 0.0223
vn 0.0335 0.9946 0.0983
vn 0.0503 0.9985 0.0233
vn 0.0230 0.9814 -0.1907
vn -0.0771 0.9879 -0.1343
vn 0.1128 0.9936 0.0051
vn -0.0939 0.9955 -0.0101
vn 0.0584 0.9978 -0.0326
vn 0.0388 0.9953 -0.0886
vn 0.0452 0.9988 -0.0206
vn -0.0346 0.9988 -0.0358
vn -0.3597 0.9289 -0.0875
vn -0.0284 0.9973 0.0674
vn 0.0082 0.9998 0.0162
vn -0.0518 0.9979 0.0385
vn -0.2108 0.9775 -0.0000
vn -0.1176 0.9913 0.0590
vn 0.0016 0.9911 -0.1331
vn 0.1465 0.9892 -0.0012
vn -0.0406 0.9882 0.1480
vn -0.0532 0.9588 -0.2790
vn 0.0025 0.9692 0.2463
vn -0.1401 0.9430 0.3018
vn -0.0284 0.9907 0.1329
vn -0.0846 0.9819 0.1697
vn -0.1192 0.9792 0.1643
vn 0.0650 0.9951 -0.0750
vn -0.1189 0.7792 0.6154
vn 0.0250 0.9925 -0.1200
vn -0.0473 0.9522 -0.3016
vn 0.0928 0.9112 -0.4014
vn -0.1588 0.9157 0.3691
vn 0.1390 0.9285 0.3444
vn 0.0892 0.9723 -0.2163
vn -0.0622 0.9857 -0.1566
vn -0.0911 0.9595 -0.2666
vn -0.0563 0.8814 0.4689
vn 0.0936 0.8545 0.5110
vn 0.0481 0.9790 -0.1980
vn -0.1036 0.9789 -0.1762
vn 0.1070 0.7064 0.6997
vn 0.2032 0.8009 0.5633
vn 0.0426 0.9836 0.1755
vn -0.0046 0.9644 -0.2645
vn 0.0786 0.9004 0.4279
vn -0.1781 0.9625 -0.2048
vn -0.0504 0.9652 -0.2564
vn 0.0041 0.8679 0.4967
vn 0.1611 0.7766 0.6091
vn -0.2125 0.4413 -0.8719
vn 0.0336 0.9974 0.0644
vn 0.1103 0.9339 0.3401
vn -0.1018 0.8170 -0.5676
vn 0.3373 0.9373 0.0878
vn -0.6216 0.7459 -0.2394
vn -0.7057 0.6634 -0.2486
vn -0.3072 0.9430 0.1278
vn 0.6488 0.6884 0.3242
vn -0.1612 0.9613 0.2236
vn -0.3710 0.9123 -0.1733
vn -0.4878 0.8729 0.0009
vn 0.0958 0.9526 0.2887
vn -0.6599 0.7455 -0.0937
vn -0.1256 0.9849 0.1188
vn -0.2020 0.9733 0.1087
vn -0.1884 0.9758 0.1105
vn -0.4925 0.8703 -0.0000
vn -0.1185 0.8793 -0.4613
vn 0.1990 0.9257 -0.3217
vn -0.3708 0.6852 0.6269
vn -0.0297 0.9939 -0.1062
vn 0.1814 0.6910 0.6998
vn 0.0095 0.9895 0.1440
vn -0.1199 0.8898 -0.4403
vn -0.0567 0.9970 0.0531
vn -0.2403 0.8488 -0.4710
vn 0.1844 0.8545 0.4855
vn -0.1127 0.9867 -0.1167
vn -0.1308 0.9245 -0.3580
vn -0.1031 0.9906 -0.0901
vn 0.3837 0.9230 0.0282
vn -0.1138 0.9935 0.0014
vn 0.0278 0.9942 -0.1042
vn -0.0923 0.9924 0.0816
vn -0.0464 0.9709 0.2348
vn 0.0651 0.9972 0.0364
vn -0.0173 0.9779 -0.2086
vn 0.0169 0.9996 -0.0243
vn 0.0567 0.9964 -0.0629
vn 0.0366 0.9964 0.0769
vn -0.0846 0.9937 0.0735
vn -0.0568 0.9904 0.1263
vn 0.0334 0.8957 -0.4435
vn -0.1141 0.9863 -0.1188
vn -0.3421 0.9393 0.0265
vn -0.2945 0.9517 -0.0872
vn -0.4829 0.8704 0.0957
vn -0.2389 0.9559 0.1710
vn 0.6348 0.7075 -0.3108
vn -0.7267 0.6636 0.1776
vn -0.4941 0.8485 0.1896
vn -0.5453 0.8364 0.0564
vn 0.8783 0.4659 -0.1073
vn 0.6074 0.7737 -0.1803
vn 0.3931 0.9181 0.0509
vn 0.3491 0.8495 0.3956
vn -0.4007 0.8750 0.2718
vn -0.0246 0.9765 -0.2139
vn 0.8748 0.0914 0.4757
vn 0.6628 0.7448 0.0774
vn -0.0590 0.9681 -0.2436
vn -0.6138 0.7883 0.0437
vn 0.3084 0.8778 0.3667
vn 0.3773 0.8871 -0.2660
vn 0.0472 0.9870 0.1539
vn -0.0339 0.9971 -0.0685
vn -0.1385 0.9427 -0.3035
vn 0.0253 0.9593 -0.2813
vn -0.0011 0.9988 0.0482
vn 0.0090 0.9093 -0.4159
vn -0.0073 0.9299 -0.3678
vn 0.1107 0.9825 0.1497
vn 0.2131 0.9151 0.3422
vn 0.0602 0.9927 0.1044
vn 0.1591 0.9769 0.1429
vn -0.1476 0.9888 -0.0196
vn -0.1050 0.9793 -0.1727
vn -0.1140 0.9460 -0.3034
vn -0.0572 0.9928 0.1049
vn -0.0506 0.9515 0.3035
vn -0.0345 0.9876 -0.1530
vn -0.3340 0.9228 -0.1920
vn 0.0963 0.9896 -0.1065
vn 0.3651 0.8953 0.2552
vn -0.0122 0.9999 0.0059
vn -0.0868 0.8846 -0.4583
vn -0.5950 0.6398 0.4865
vn -0.1969 0.9765 0.0876
vn -0.5216 0.8531 -0.0108
vn -0.4315 0.8379 -0.3343
vn -0.1314 0.9913 -0.0054
vn -0.4712 0.8311 -0.2955
vn 0.3215 0.7348 -0.5972
vn -0.3865 0.9223 0.0059
vn -0.6918 0.6671 -0.2764
vn 0.2708 0.9602 0.0680
vn -0.0393 0.9580 -0.2842
vn 0.3512 0.9332 -0.0767
vn 0.1195 0.9412 0.3159
vn 0.3905 0.9114 -0.1300
vn -0.6064 0.5691 0.5554
vn -0.1233 0.9565 0.2645
vn -0.1275 0.9603 -0.2480
vn -0.0027 0.9976 -0.0687
vn 0.0479 0.9446 -0.3248
vn -0.2190 0.9691 0.1135
vn 0.4538 0.8898 -0.0478
vn -0.0559 0.9983 0.0174
vn 0.2281 0.9684 0.1009
vn -0.2657 0.9638 -0.0246
vn 0.3770 0.9257 -0.0290
vn 0.3726 0.9280 0.0015
vn 0.1916 0.9814 -0.0125
vn 0.2086 0.8729 -0.4412
vn 0.0606 0.9841 0.1671
vn 0.6110 0.7430 -0.2732
vn -0.4040 0.8892 0.2147
vn 0.0727 0.9462 -0.3152
vn 0.0296 0.9980 -0.0558
vn 0.3157 0.7178 -0.6206
vn -0.2240 0.9672 0.1197
vn 0.0055 0.7270 -0.6866
vn 0.0111 0.9610 -0.2765
vn 0.0579 0.6198 -0.7826
vn -0.0464 0.9918 0.1188
vn -0.0164 0.9989 -0.0432
vn -0.0180 0.9519 0.3058
vn -0.0247 0.9971 0.0727
vn -0.0372 0.9854 -0.1663
vn 0.0160 0.9008 0.4339
vn -0.0389 0.9992 0.0071
vn -0.0603 0.9944 -0.0868
vn -0.1007 0.9934 -0.0553
vn -0.0348 0.9989 0.0315
vn 0.0026 0.9999 0.0153
vn 0.0085 0.9718 0.2358
vn -0.0370 0.9939 0.1035
vn 0.0160 0.9405 0.3393
vn 0.0930 0.8385 0.5369
vn -0.0242 0.9960 0.0865
vn 0.0389 0.9792 0.1992
vn -0.0197 0.9238 -0.3825
vn 0.0615 0.9899 -0.1275
vn 0.0781 0.9777 0.1950
vn -0.0477 0.9986 -0.0214
vn 0.1538 0.9875 0.0332
vn -0.0313 0.9893 -0.1423
vn -0.0436 0.9990 0.0018
vn 0.1421 0.9459 0.2915
vn 0.0704 0.9975 -0.0086
vn -0.0309 0.9912 -0.1287
vn 0.0107 0.9874 -0.1577
vn 0.2030 0.9715 0.1219
vn 0.0484 0.9965 0.0677
vn -0.0130 0.9991 0.0406
vn -0.1344 0.9610 0.2418
vn 0.0333 0.9880 0.1509
vn 0.1133 0.9564 0.2692
vn 0.0358 0.9993 0.0051
vn -0.0145 0.9994 0.0322
vn 0.0633 0.9818 -0.1790
vn 0.1618 0.7606 -0.6287
vn -0.0088 0.8622 -0.5066
vn 0.0168 0.8571 -0.5149
vn -0.2878 0.9577 0.0051
vn -0.0000 0.9854 0.1704
vn 0.1061 0.9845 0.1396
vn 0.0373 0.9710 -0.2363
vn 0.2200 0.9563 -0.1927
vn -0.0000 0.9189 0.3946
vn 0.3377 0.9075 -0.2497
vn -0.2382 0.9285 0.2849
vn -0.1687 0.9299 -0.3268
vn 0.0402 0.9990 -0.0190
vn 0.0280 0.9777 -0.2082
vn -0.0000 0.9724 0.2334
vn -0.0784 0.9858 -0.1484
vn 0.0182 0.9979 0.0628
vn 0.0324 0.9859 0.1641
vn -0.1045 0.9864 0.1268
vn -0.1121 0.9925 0.0481
vn 0.0788 0.9961 -0.0385
vn -0.2032 0.9791 -0.0009
vn -0.1163 0.9913 0.0612
vn -0.0680 0.9946 0.0790
vn -0.0000 0.9931 0.1170
vn 0.3595 0.9331 0.0137
vn 0.1636 0.9864 0.0155
vn -0.2112 0.9774 -0.0000
vn 0.0520 0.9944 -0.0925
vn -0.0705 0.9856 0.1534
vn -0.0822 0.9852 0.1504
vn -0.0613 0.9733 0.2214
vn 0.0736 0.9871 -0.1421
vn -0.0501 0.9811 -0.1871
vn 0.0392 0.9971 -0.0659
vn 0.1022 0.9625 -0.2513
vn -0.0326 0.9991 0.0288
vn 0.0009 0.9985 -0.0554
vn 0.0543 0.9855 0.1607
vn -0.0058 0.9984 -0.0560
vn -0.0275 0.9933 -0.1126
vn -0.0436 0.9723 -0.2297
vn 0.0498 0.9813 0.1857
vn 0.0927 0.9955 0.0177
vn -0.2771 0.9420 0.1894
vn -0.0144 0.9785 0.2056
vn -0.0657 0.9672 -0.2453
vn -0.3866 0.8882 0.2482
vn 0.0982 0.9643 -0.2460
vn -0.0998 0.9472 -0.3048
vn -0.1221 0.9860 -0.1139
vn -0.3300 0.9046 0.2698
vn -0.0316 0.9976 0.0613
vn -0.0347 0.9957 -0.0857
vn -0.0892 0.9939 0.0647
vn 0.0409 0.9991 0.0072
vn 0.0008 0.9996 -0.0281
vn -0.0164 0.9906 -0.1356
vn -0.1259 0.9920 -0.0121
vn 0.2804 0.9511 0.1295
vn -0.0091 0.9991 0.0416
vn -0.3432 0.9251 -0.1625
vn 0.0543 0.9985 -0.0063
vn -0.2125 0.9544 0.2097
vn -0.2587 0.9572 -0.1301
vn 0.0232 0.9983 0.0528
vn -0.0131 0.9857 -0.1681
vn -0.0070 0.9805 0.1966
vn 0.0001 0.9849 -0.1732
vn -0.0321 0.9553 -0.2940
vn 0.0042 0.9979 -0.0640
vn 0.0334 0.9871 -0.1565
vn 0.0168 0.9598 0.2801
vn 0.0659 0.9831 -0.1707
vn -0.2169 0.9391 0.2666
vn -0.0126 0.9943 0.1062
vn 0.0374 0.9978 -0.0545
vn -0.0027 0.8317 0.5552
vn 0.0338 0.9748 0.2203
vn -0.0115 0.9195 0.3930
vn -0.0189 0.9980 0.0602
vn -0.2133 0.9768 -0.0203
vn -0.0462 0.9987 -0.0234
vn 0.0165 0.9983 -0.0561
vn 0.0212 0.9868 -0.1603
vn 0.0679 0.9928 -0.0989
vn -0.0350 0.9910 -0.1295
vn -0.0621 0.9977 -0.0274
vn -0.0569 0.9957 0.0736
vn 0.1172 0.9807 0.1566
vn 0.0390 0.9232 0.3824
vn 0.1071 0.8053 0.5831
vn -0.0386 0.9404 -0.3377
vn 0.0911 0.8387 0.5369
vn 0.0654 0.9587 0.2769
vn -0.0210 0.9895 -0.1428
vn -0.7299 0.5466 -0.4104
vn -0.0623 0.9263 -0.3717
vn -0.5102 0.8061 0.2998
vn -0.9059 -0.2689 -0.3273
vn 0.8858 -0.4519 0.1057
vn 0.0359 0.9983 -0.0455
vn -0.3892 0.9189 0.0651
vn 0.1761 0.9788 -0.1047
vn -0.4063 0.8897 0.2081
vn -0.5213 0.8167 0.2475
vn -0.9012 0.3443 0.2634
vn -0.3831 0.9157 0.1213
vn -0.2351 0.9670 0.0982
vn -0.6754 0.7172 0.1717
vn -0.0116 0.9995 0.0281
vn 0.1788 0.9838 0.0081
vn 0.4501 0.8808 -0.1470
vn -0.0521 0.8949 -0.4431
vn 0.0147 0.9921 0.1249
vn -0.1061 0.9574 -0.2684
vn -0.0271 0.9831 0.1809
vn 0.0597 0.8782 0.4745
vn -0.0533 0.9652 0.2561
vn 0.0068 0.9864 0.1644
vn -0.0164 0.9232 -0.3840
vn -0.0049 0.9200 -0.3918
vn 0.0865 0.9747 0.2063
vn -0.0481 0.8767 -0.4786
vn 0.0947 0.8968 0.4323
vn -0.0071 0.9519 0.3065
vn 0.0667 0.9966 -0.0484
vn 0.0970 0.9662 -0.2390
vn 0.0543 0.9635 0.2620
vn -0.0617 0.9860 -0.1548
vn 0.0691 0.9097 0.4095
vn 0.0954 0.9242 0.3699
vn -0.0659 0.9151 -0.3978
vn 0.0443 0.9289 0.3677
vn 0.0483 0.9859 0.1603
vn -0.0535 0.9819 -0.1820
vn -0.1100 0.8592 -0.4997
vn 0.2155 0.7718 0.5983
vn 0.1582 0.8995 0.4074
vn 0.2604 0.3253 0.9090
vn -0.1961 0.8723 -0.4479
vn -0.0874 0.9731 -0.2130
vn 0.0656 0.9876 0.1425
vn 0.1101 0.9711 -0.2116
vn 0.0357 0.9633 0.2661
vn -0.0222 0.8555 0.5173
vn -0.0362 0.9877 -0.1524
vn 0.0458 0.7563 -0.6526
vn -0.0256 0.7142 -0.6995
vn -0.1196 0.8275 -0.5486
vn -0.0659 0.9574 0.2811
vn 0.0378 0.9566 0.2888
vn 0.0323 0.9318 0.3614
vn -0.0807 0.9129 0.4002
vn 0.0393 0.9878 0.1506
vn -0.0730 0.9052 0.4186
vn -0.0369 0.8001 0.5987
vn -0.0898 0.8603 0.5018
vn 0.0686 0.8958 0.4392
vn 0.0291 0.9366 0.3491
vn -0.1813 0.8873 -0.4240
vn 0.1158 0.8968 0.4271
vn -0.1131 0.8921 -0.4374
vn -0.0927 0.8597 -0.5024
vn -0.1666 0.7497 -0.6404
vn 0.0769 0.9003 0.4285
vn -0.0357 0.9694 -0.2428
vn -0.1358 0.8097 -0.5709
vn 0.1461 0.9046 0.4004
vn 0.1451 0.8092 0.5693
vn -0.0555 0.9863 0.1555
vn 0.0501 0.9987 0.0090
vn -0.0245 0.8793 -0.4757
vn 0.0086 0.9996 -0.0253
vn -0.5455 0.8259 0.1422
vn -0.2188 0.9699 -0.1072
vn 0.1516 0.9625 0.2250
vn 0.2373 0.9712 0.0202
vn -0.5159 0.8566 -0.0025
vn -0.4775 0.8785 -0.0135
vn -0.2750 0.9614 -0.0107
vn -0.5147 0.8568 -0.0316
vn 0.4860 0.8735 0.0269
vn -0.3222 0.9328 -0.1617
vn -0.1106 0.9895 0.0928
vn 0.2115 0.9733 0.0887
vn -0.0213 0.9992 0.0332
vn 0.0570 0.9971 0.0502
vn 0.5875 0.8092 0.0029
vn 0.2638 0.9645 -0.0145
vn -0.0237 0.9993 0.0303
vn -0.1831 0.9808 -0.0671
vn 0.0715 0.9974 -0.0126
vn 0.2172 0.9760 -0.0146
vn 0.2196 0.9650 -0.1436
vn 0.0262 0.9780 -0.2072
vn -0.0767 0.9961 -0.0436
vn -0.0801 0.9927 0.0907
vn 0.2383 0.9711 -0.0160
vn 0.0743 0.9635 0.2573
vn -0.1581 0.9586 0.2367
vn -0.2219 0.7567 0.6150
vn 0.1746 0.9717 0.1589
vn 0.1355 0.9700 -0.2018
vn -0.0041 0.9998 -0.0168
vn 0.0454 0.9899 -0.1346
vn -0.1487 0.9670 0.2070
vn -0.0168 0.9932 0.1156
vn 0.0073 0.9686 -0.2485
vn 0.2027 0.8726 0.4445
vn -0.1853 0.9742 -0.1285
vn 0.2259 0.9526 0.2040
vn 0.2223 0.9190 0.3256
vn 0.2012 0.9453 0.2569
vn -0.1571 0.9876 0.0029
vn 0.1665 0.9858 -0.0224
vn -0.0944 0.9935 -0.0640
vn 0.0857 0.9963 -0.0010
vn -0.0229 0.9845 -0.1739
vn 0.0609 0.9923 0.1082
vn 0.2127 0.9771 -0.0011
vn 0.0586 0.9976 0.0359
vn 0.0656 0.9864 -0.1509
vn 0.1068 0.9758 -0.1907
vn -0.0383 0.9862 0.1612
vn 0.0088 0.9999 -0.0078
vn -0.0000 1.0000 -0.0000
vt -0.941642 0.291951
vt -1.352872 -0.658654
vt -0.612026 -0.174620
vt -1.476872 0.283219
vt 0.128819 0.309415
vt -0.736026 0.767253
vt -1.600872 1.225092
vt -0.984026 2.650999
vt -0.366398 3.115607
vt -1.848872 3.108837
vt 0.189633 2.425464
vt -0.119181 2.193160
vt 0.745665 1.735322
vt 1.363293 2.199930
vt 1.610511 1.277483
vt 1.116075 3.122377
vt -1.025739 3.724102
vt 0.127064 4.035120
vt 1.279868 4.346138
vt 0.620527 4.954632
vt 1.443660 5.569898
vt -0.202606 4.339367
vt 1.738677 4.469099
vt 1.531143 4.020192
vt 1.574884 3.245339
vt 2.033693 3.368300
vt -0.146942 -2.147417
vt -1.288286 -1.952845
vt 0.391436 -1.597608
vt -1.223699 -3.247036
vt 0.456023 -2.891798
vt 2.135744 -2.536561
vt -4.060347 1.302434
vt -3.633472 2.873890
vt -4.521783 2.400452
vt -3.385473 0.990145
vt -5.410093 1.927014
vt -4.273783 0.516707
vt -3.137474 -0.893601
vt -4.498784 -0.433294
vt -4.802554 0.353476
vt -5.635094 0.977014
vt -5.860094 0.027014
vt -4.498784 -1.383294
vt -4.952554 -0.913191
vt -5.860094 -0.922986
vt -5.860094 -1.872986
vt -4.817886 2.971385
vt -5.410094 3.020132
vt -4.521783 3.493570
vt -5.410093 4.113249
vt -3.629483 3.611043
vt -3.630813 3.365325
vt -2.741172 2.991364
vt -4.117316 4.131206
vt -5.269837 4.312800
vt -2.598921 3.559490
vt -3.348970 4.010144
vt -4.099020 4.460798
vt -4.989325 4.711901
vt -4.849069 4.911451
vt -5.129581 4.512351
vt -3.275887 5.076062
vt -3.300248 4.720757
vt -2.525837 4.625410
vt -1.702704 5.240674
vt -3.316856 5.271706
vt -0.708542 5.611272
vt -0.129522 5.405286
vt 1.402691 5.765541
vt 1.361722 5.961184
vt 1.320752 6.156827
vt -0.252430 5.992216
vt 1.279783 6.352471
vt -1.784643 5.631961
vt 3.827446 6.759752
vt 5.060308 7.159037
vt 5.101277 6.963393
vt 8.840833 7.965602
vt 5.008644 7.351813
vt 6.286040 7.556410
vt 8.789168 8.158380
vt 8.737504 8.351156
vt 16.278858 10.906940
vt 16.195225 10.349841
vt 16.246889 10.157064
vt 16.196846 11.792413
vt 16.298553 9.964287
vt 16.350218 9.771510
vt 16.351028 10.492795
vt 16.401882 9.578732
vt 16.300175 11.406858
vt 16.249321 12.320922
vt 16.198467 13.234985
vt 15.923986 11.361920
vt 15.993011 12.190828
vt 16.062037 13.019738
vt 15.925607 12.804493
vt 15.789177 12.589246
vt 15.652746 12.374000
vt 13.257792 11.851268
vt 11.923886 11.374656
vt 12.060316 11.589903
vt 8.195025 10.375314
vt 2.884352 9.260647
vt 0.737304 8.376629
vt 4.602595 9.591218
vt 0.092585 8.488067
vt 3.957876 9.702656
vt 8.467886 10.805806
vt -0.552134 8.599505
vt -0.131503 7.947681
vt 1.008544 7.364550
vt -1.196853 8.710943
vt -1.061233 8.204904
vt -1.841572 8.822381
vt -0.280895 7.587426
vt 0.499444 6.969949
vt -0.287608 6.516036
vt -0.285370 6.873166
vt -1.067947 7.133514
vt -1.855000 6.679602
vt -0.786620 6.221344
vt -1.819821 6.155781
vt 16.869240 10.249246
vt 17.153772 9.670439
vt 17.204626 8.756375
vt 18.109079 6.105893
vt 18.651419 1.637706
vt 18.720991 2.011880
vt 18.203056 3.401221
vt 18.976093 0.878936
vt 18.326742 2.396476
vt 17.685122 4.790561
vt 18.968363 0.002390
vt 19.099779 -0.125809
vt 19.231195 -0.254007
vt 17.793602 -1.211249
vt 20.019691 -1.023199
vt 19.888277 -0.895000
vt 15.961764 -1.783896
vt 19.756861 -0.766802
vt 19.625444 -0.638603
vt 19.494028 -0.510405
vt 15.698933 -1.527498
vt 11.903836 -2.544592
vt -3.461352 8.613213
vt -2.628625 8.368469
vt -4.072723 7.970619
vt -5.081131 8.404043
vt -5.058294 8.054715
vt -5.035457 7.705388
vt -5.012620 7.356061
vt -4.202730 7.460644
vt -4.989782 7.006733
vt -3.415678 7.914557
vt -7.378360 7.239618
vt -8.549811 7.006733
vt -8.572649 7.356061
vt -12.109841 7.006733
vt -17.013439 7.416919
vt -19.229898 7.006733
vt -15.692707 7.356061
vt -19.442400 7.272685
vt -15.905206 7.622012
vt -12.155516 7.705388
vt -19.654898 7.538637
vt -19.548647 6.881840
vt -19.229898 5.959092
vt -19.867399 7.804588
vt -19.654900 6.490996
vt -20.079899 8.070540
vt -19.229898 4.911451
vt -19.484896 5.539896
vt -19.229898 4.711901
vt -19.867401 7.081218
vt -19.654898 6.091895
vt -19.442398 5.102572
vt -19.229898 4.312800
vt -19.229898 4.113249
vt -19.229898 4.512351
vt -16.926598 4.645384
vt -15.774948 4.711901
vt -15.774948 4.512351
vt -12.319997 4.512351
vt -20.079899 4.397652
vt -19.938232 4.962399
vt -19.867401 3.408329
vt -20.079899 0.724764
vt -19.708023 -4.982971
vt -19.495523 -4.745965
vt -19.548647 -3.581937
vt -19.628332 -5.505733
vt -19.867399 -6.384006
vt -19.761148 -6.265502
vt -19.654898 -6.146999
vt -19.548647 -6.028496
vt -19.442398 -5.909993
vt -17.720549 -5.850741
vt -19.229898 -5.672987
vt -19.336149 -5.791490
vt -15.892447 -5.672987
vt -16.104948 -5.909993
vt -12.554996 -5.672987
vt -7.995258 -6.354589
vt -5.880094 -5.672987
vt -9.430045 -5.909993
vt -5.502890 -6.458383
vt -9.052840 -6.695389
vt -12.979997 -6.146999
vt -5.125685 -7.243780
vt -4.682161 -6.304436
vt -4.715321 -7.166805
vt -4.748481 -8.029176
vt -3.927752 -7.875228
vt -4.371276 -8.814572
vt -3.484228 -6.935884
vt -1.266111 -8.185255
vt -1.223699 -7.872226
vt -2.797488 -8.343399
vt 0.286471 -7.870596
vt -1.287318 -8.341769
vt 1.796641 -7.868966
vt 2.274888 -5.957084
vt 0.722616 -5.925910
vt 1.259629 -6.897438
vt 2.255299 -4.995948
vt 2.294476 -6.918221
vt 2.792311 -5.967475
vt 3.290146 -5.016731
vt 3.787982 -4.065986
vt 2.046127 -4.124681
vt 1.220008 -3.359969
vt 0.304272 -4.183377
vt 2.075999 -3.595308
vt 2.961863 -3.301274
vt 5.165706 -6.094175
vt 6.352404 -6.157524
vt 6.850239 -5.206779
vt 10.908166 -4.446083
vt -7.339378 4.778418
vt -8.444276 4.911452
vt -8.584533 4.711901
vt -12.039484 4.911451
vt -5.876760 1.293681
vt -5.885094 1.927014
vt -6.360094 1.927014
vt -6.110094 0.977014
vt -6.193427 0.660347
vt -6.110094 0.027014
vt -6.360094 0.977014
vt -6.360094 0.027014
vt -6.193427 -2.506320
vt -6.840094 -1.872986
vt -6.360094 -2.822986
vt -6.350093 -1.872986
vt -5.870094 -2.822986
vt -5.880094 -3.772986
vt -4.902140 -3.103785
vt -4.413163 -2.769183
vt -4.423162 -3.719183
vt -2.966231 -3.665380
vt -6.840094 -2.822986
vt -6.520094 -3.139653
vt -6.840094 -3.772986
vt -6.360094 -3.772987
vt -5.192330 -4.760688
vt -4.848448 -5.254539
vt -5.880094 -4.722987
vt -4.848448 -4.304539
vt -3.816803 -4.836092
vt 3.541410 -3.145954
vt 3.072855 -2.942823
vt 3.294839 -2.225921
vt 2.715292 -2.381241
vt 1.888526 -1.614114
vt 0.808060 -1.295627
vt 1.641308 -0.691667
vt 0.144218 -0.675161
vt 0.506942 0.059144
vt 1.625910 0.292908
vt 0.869665 0.793449
vt 1.936915 0.046691
vt 2.100117 -0.568706
vt 2.558926 -0.445744
vt 2.084719 0.415870
vt 2.077976 0.743630
vt 1.837501 1.338317
vt 2.311708 0.476703
vt 2.064490 1.399150
vt -4.393708 -5.814987
vt -3.650516 -5.885988
vt -4.221043 -4.091486
vt -3.391517 -4.250736
vt -3.026401 -7.874227
vt -2.353964 -7.404055
vt 0.431853 -7.222367
vt -0.250542 -6.899068
vt 1.604957 -4.725091
vt 0.513444 -5.054644
vt 0.405439 -3.322325
vt -0.459714 -3.715206
vt -0.858857 -1.301896
vt 0.000000 0.000000
vt -0.611850 -1.623518
vt -0.676436 -0.329327
vt -7.240850 -7.925381
vt -8.675636 -7.480786
vt -8.298432 -8.266182
vt -12.225588 -7.717792
vt -10.110423 -7.036190
vt -12.602792 -6.932396
vt -15.095161 -6.828601
vt -16.529947 -6.384006
vt -16.152742 -7.169402
vt -20.079899 -6.621012
vt -10.471695 -5.830991
vt -12.767495 -5.909993
vt -9.217546 -5.672987
vt -15.063297 -5.988995
vt -16.317448 -6.146999
vt -18.145546 -6.324753
vt -19.973650 -6.502509
vt 6.161376 -4.192685
vt 7.348074 -4.256034
vt 7.845909 -3.305289
vt 8.534771 -4.319384
vt 11.406002 -3.495337
vt 14.277231 -2.671291
vt 15.463929 -2.734641
vt 9.023331 -2.880792
vt 11.641004 -2.288195
vt 11.378172 -2.031798
vt 7.583077 -3.048892
vt 14.258680 -1.695598
vt 15.436100 -1.271101
vt 17.267939 -0.698455
vt 19.362614 -0.382206
vt 15.173268 -1.014704
vt 19.300768 0.120167
vt 19.238926 0.622539
vt 19.177084 1.124911
vt 19.115240 1.627284
vt 18.465889 3.144823
vt 18.210787 4.277767
vt 17.754694 5.164734
vt 17.306334 6.928249
vt 17.043503 7.184648
vt 18.779854 3.120153
vt 18.159935 5.191830
vt 19.064386 2.541347
vt 17.540014 7.263506
vt 17.255480 7.842313
vt 16.970949 8.421120
vt -17.438438 7.948823
vt -16.117706 7.887964
vt -16.330208 8.153916
vt -12.580516 8.237292
vt -14.796977 7.827106
vt -12.368015 7.971340
vt -9.939054 8.115574
vt -8.618323 8.054715
vt -8.830823 8.320668
vt -14.498418 7.239618
vt -12.132678 7.356061
vt -15.669869 7.006733
vt -9.766937 7.472503
vt -8.595487 7.705388
vt -7.424035 7.938272
vt 1.594914 9.483523
vt 3.313157 9.814095
vt 2.668438 9.925532
vt 7.178448 11.028683
vt 5.031400 10.144665
vt 7.823167 10.917245
vt 10.614933 11.689825
vt 12.333177 12.020396
vt 11.688457 12.131833
vt 5.800072 9.852583
vt 8.331456 10.590560
vt 4.466165 9.375972
vt 10.862840 11.328537
vt 12.196747 11.805150
vt 13.530654 12.281761
vt -7.619890 4.379317
vt -8.724789 4.512351
vt -8.865045 4.312800
vt -9.829687 4.645384
vt -12.179741 4.711901
vt -14.529794 4.778418
vt -15.634690 4.911452
vt -10.016696 4.246283
vt -12.319998 4.312800
vt -12.319997 4.113249
vt -8.865045 4.113249
vt -14.623298 4.379317
vt -15.774948 4.312800
vt -16.926598 4.246283
vt -15.774948 4.113249
vt 12.518028 9.157722
vt 12.466364 9.350499
vt 13.743761 9.555095
vt 11.292297 8.760348
vt 12.569693 8.964944
vt 12.621357 8.772167
vt 13.847090 9.169540
vt 11.388496 8.372884
vt 8.881803 7.769958
vt 8.922771 7.574315
vt 12.662327 8.576524
vt 6.375109 7.167034
vt 5.142247 6.767750
vt 3.909384 6.368465
vt 5.183216 6.572106
vt -19.389273 -2.180903
vt -19.229898 -3.226428
vt -19.229898 -0.779869
vt -19.362709 -3.986196
vt -19.442398 1.429684
vt -19.229898 1.666690
vt -19.415834 -0.375609
vt -19.654898 -1.253881
vt -19.601772 -2.417909
vt -19.867399 -3.937446
vt -19.787708 -4.460208
vt -19.654898 2.419007
vt -19.513233 2.983754
vt -19.796566 1.854259
vt -19.867401 -0.264558
vt -20.079899 -2.948123
vt -19.938232 -2.383376
vt -3.352034 5.795526
vt -3.851046 5.500835
vt -4.919425 5.959092
vt -4.884247 5.435272
vt -2.853023 6.090218
vt -3.387213 6.319346
vt -3.422391 6.843167
vt -3.921402 6.548476
vt -4.954604 6.482912
vt -2.635339 7.297079
vt -3.420153 7.200297
vt -1.850524 7.393862
vt -1.848286 7.750992
vt -1.846048 8.108122
vt -0.952655 4.790021
vt -0.153883 5.049980
vt -1.751427 4.530062
vt -1.775788 4.174756
vt -1.800150 3.819450
vt -1.189642 2.175696
vt -0.860026 1.709126
vt -1.724872 2.166964
vt -0.530411 1.242555
vt 0.004819 1.251287
vt 0.540050 1.260019
vt -3.051852 -2.279491
vt -3.987933 -2.143989
vt -1.496782 -0.517418
vt -2.245173 -0.776128
vt -1.568737 -0.446801
vt -2.725495 -2.113204
vt -1.816997 -1.408803
vt -2.313517 -3.332807
vt -1.156759 -1.666403
vt -2.805741 -2.630596
vt -2.639874 -3.499093
s 1
usemtl Nitruro_di_alluminio_(AlN)
f 345/1/1 4/2/2 338/3/3
f 4/2/2 345/1/1 145/4/4
f 345/1/1 108/5/5 340/6/6
f 108/5/5 345/1/1 338/3/3
f 145/4/4 340/6/6 106/7/7
f 340/6/6 145/4/4 345/1/1
f 337/8/8 147/9/9 2/10/10
f 147/9/9 337/8/8 346/11/11
f 107/12/12 346/11/11 337/8/8
f 346/11/11 107/12/12 146/13/13
f 146/13/13 137/14/14 346/11/11
f 137/14/14 146/13/13 52/15/15
f 346/11/11 53/16/16 147/9/9
f 53/16/16 346/11/11 137/14/14
f 147/9/9 330/17/17 2/10/10
f 330/17/17 147/9/9 347/18/18
f 53/16/16 347/18/18 147/9/9
f 347/18/18 53/16/16 127/19/19
f 127/19/19 148/20/20 347/18/18
f 148/20/20 127/19/19 43/21/21
f 347/18/18 103/22/22 330/17/17
f 103/22/22 347/18/18 148/20/20
f 127/19/19 111/23/23 43/21/21
f 111/23/23 127/19/19 348/24/24
f 348/24/24 53/16/16 112/25/25
f 53/16/16 348/24/24 127/19/19
f 348/24/24 42/26/26 111/23/23
f 42/26/26 348/24/24 112/25/25
f 349/27/27 4/2/2 210/28/28
f 4/2/2 349/27/27 211/29/29
f 349/27/27 6/30/30 212/31/31
f 6/30/30 349/27/27 210/28/28
f 211/29/29 212/31/31 48/32/32
f 212/31/31 211/29/29 349/27/27
f 350/33/33 1/34/34 113/35/35
f 1/34/34 350/33/33 110/36/36
f 350/33/33 30/37/37 155/38/38
f 30/37/37 350/33/33 113/35/35
f 110/36/36 155/38/38 3/39/39
f 155/38/38 110/36/36 350/33/33
f 155/38/38 156/40/40 3/39/39
f 156/40/40 155/38/38 351/41/41
f 157/42/42 155/38/38 30/37/37
f 155/38/38 157/42/42 351/41/41
f 351/41/41 33/43/43 156/40/40
f 33/43/43 351/41/41 157/42/42
f 156/40/40 158/44/44 3/39/39
f 158/44/44 156/40/40 352/45/45
f 352/45/45 33/43/43 213/46/46
f 33/43/43 352/45/45 156/40/40
f 352/45/45 34/47/47 158/44/44
f 34/47/47 352/45/45 213/46/46
f 353/48/48 30/37/37 113/35/35
f 30/37/37 353/48/48 149/49/49
f 353/48/48 1/34/34 114/50/50
f 1/34/34 353/48/48 113/35/35
f 149/49/49 114/50/50 29/51/51
f 114/50/50 149/49/49 353/48/48
f 114/50/50 150/52/52 29/51/51
f 150/52/52 114/50/50 354/53/53
f 354/53/53 1/34/34 109/54/54
f 1/34/34 354/53/53 114/50/50
f 150/52/52 109/54/54 2/10/10
f 109/54/54 150/52/52 354/53/53
f 355/55/55 29/51/51 150/52/52
f 29/51/51 355/55/55 176/56/56
f 331/57/57 150/52/52 2/10/10
f 150/52/52 331/57/57 355/55/55
f 355/55/55 104/58/58 151/59/59
f 104/58/58 355/55/55 331/57/57
f 288/60/60 151/59/59 23/61/61
f 151/59/59 288/60/60 355/55/55
f 355/55/55 85/62/62 176/56/56
f 85/62/62 355/55/55 288/60/60
f 151/59/59 332/63/63 23/61/61
f 332/63/63 151/59/59 356/64/64
f 356/64/64 104/58/58 334/65/65
f 104/58/58 356/64/64 151/59/59
f 332/63/63 334/65/65 105/66/66
f 334/65/65 332/63/63 356/64/64
f 332/63/63 321/67/67 23/61/61
f 321/67/67 332/63/63 357/68/68
f 357/68/68 105/66/66 177/69/69
f 105/66/66 357/68/68 332/63/63
f 179/70/70 177/69/69 43/21/21
f 177/69/69 179/70/70 357/68/68
f 357/68/68 86/71/71 289/72/72
f 86/71/71 357/68/68 179/70/70
f 178/73/73 289/72/72 39/74/74
f 289/72/72 178/73/73 357/68/68
f 357/68/68 100/75/75 321/67/67
f 100/75/75 357/68/68 178/73/73
f 358/76/76 39/74/74 289/72/72
f 39/74/74 358/76/76 290/77/77
f 358/76/76 86/71/71 304/78/78
f 86/71/71 358/76/76 289/72/72
f 290/77/77 304/78/78 87/79/79
f 304/78/78 290/77/77 358/76/76
f 290/77/77 159/80/80 39/74/74
f 159/80/80 290/77/77 359/81/81
f 359/81/81 87/79/79 301/82/82
f 87/79/79 359/81/81 290/77/77
f 359/81/81 83/83/83 159/80/80
f 83/83/83 359/81/81 301/82/82
f 360/84/84 38/85/85 287/86/86
f 38/85/85 360/84/84 181/87/87
f 360/84/84 84/88/88 160/89/89
f 84/88/88 360/84/84 287/86/86
f 182/90/90 160/89/89 44/91/91
f 160/89/89 182/90/90 360/84/84
f 360/84/84 68/92/92 253/93/93
f 68/92/92 360/84/84 182/90/90
f 181/87/87 253/93/93 15/94/94
f 253/93/93 181/87/87 360/84/84
f 181/87/87 161/95/95 38/85/85
f 161/95/95 181/87/87 361/96/96
f 15/94/94 361/96/96 181/87/87
f 361/96/96 15/94/94 264/97/97
f 73/98/98 361/96/96 264/97/97
f 361/96/96 73/98/98 183/99/99
f 361/96/96 41/100/100 161/95/95
f 41/100/100 361/96/96 183/99/99
f 362/101/101 41/100/100 183/99/99
f 41/100/100 362/101/101 195/102/102
f 362/101/101 73/98/98 282/103/103
f 73/98/98 362/101/101 183/99/99
f 195/102/102 282/103/103 76/104/104
f 282/103/103 195/102/102 362/101/101
f 363/105/105 40/106/106 184/107/107
f 40/106/106 363/105/105 196/108/108
f 279/109/109 184/107/107 74/110/110
f 184/107/107 279/109/109 363/105/105
f 363/105/105 77/111/111 196/108/108
f 77/111/111 363/105/105 279/109/109
f 364/112/112 40/106/106 196/108/108
f 40/106/106 364/112/112 186/113/113
f 364/112/112 77/111/111 268/114/114
f 77/111/111 364/112/112 196/108/108
f 322/115/115 268/114/114 16/116/116
f 268/114/114 322/115/115 364/112/112
f 364/112/112 101/117/117 197/118/118
f 101/117/117 364/112/112 322/115/115
f 186/113/113 197/118/118 39/74/74
f 197/118/118 186/113/113 364/112/112
f 197/118/118 162/119/119 39/74/74
f 162/119/119 197/118/118 365/120/120
f 365/120/120 101/117/117 328/121/121
f 101/117/117 365/120/120 197/118/118
f 162/119/119 328/121/121 98/122/122
f 328/121/121 162/119/119 365/120/120
f 162/119/119 178/73/73 39/74/74
f 178/73/73 162/119/119 366/123/123
f 366/123/123 98/122/122 325/124/124
f 98/122/122 366/123/123 162/119/119
f 366/123/123 100/75/75 178/73/73
f 100/75/75 366/123/123 325/124/124
f 367/125/125 15/94/94 253/93/93
f 15/94/94 367/125/125 164/126/126
f 367/125/125 68/92/92 260/127/127
f 68/92/92 367/125/125 253/93/93
f 164/126/126 260/127/127 65/128/128
f 260/127/127 164/126/126 367/125/125
f 368/129/129 70/130/130 258/131/131
f 70/130/130 368/129/129 255/132/132
f 138/133/133 258/131/131 64/134/134
f 258/131/131 138/133/133 368/129/129
f 45/135/135 368/129/129 138/133/133
f 368/129/129 45/135/135 166/136/136
f 166/136/136 255/132/132 368/129/129
f 255/132/132 166/136/136 67/137/137
f 369/138/138 14/139/139 254/140/140
f 14/139/139 369/138/138 241/141/141
f 69/142/142 369/138/138 254/140/140
f 369/138/138 69/142/142 240/143/143
f 61/144/144 369/138/138 240/143/143
f 369/138/138 61/144/144 247/145/145
f 247/145/145 241/141/141 369/138/138
f 241/141/141 247/145/145 62/146/146
f 199/147/147 323/148/148 16/116/116
f 323/148/148 199/147/147 370/149/149
f 370/149/149 17/150/150 269/151/151
f 17/150/150 370/149/149 199/147/147
f 370/149/149 78/152/152 214/153/153
f 78/152/152 370/149/149 269/151/151
f 198/154/154 214/153/153 22/155/155
f 214/153/153 198/154/154 370/149/149
f 370/149/149 102/156/156 323/148/148
f 102/156/156 370/149/149 198/154/154
f 371/157/157 22/155/155 214/153/153
f 22/155/155 371/157/157 263/158/158
f 371/157/157 78/152/152 276/159/159
f 78/152/152 371/157/157 214/153/153
f 263/158/158 276/159/159 72/160/160
f 276/159/159 263/158/158 371/157/157
f 372/161/161 25/162/162 215/163/163
f 25/162/162 372/161/161 115/164/164
f 273/165/165 215/163/163 79/166/166
f 215/163/163 273/165/165 372/161/161
f 372/161/161 71/167/167 115/164/164
f 71/167/167 372/161/161 273/165/165
f 373/168/168 25/162/162 115/164/164
f 25/162/162 373/168/168 200/169/169
f 71/167/167 373/168/168 115/164/164
f 373/168/168 71/167/167 262/170/170
f 262/170/170 116/171/171 373/168/168
f 116/171/171 262/170/170 18/172/172
f 116/171/171 200/169/169 373/168/168
f 200/169/169 116/171/171 24/173/173
f 374/174/174 24/173/173 116/171/171
f 24/173/173 374/174/174 292/175/175
f 306/176/176 116/171/171 18/172/172
f 116/171/171 306/176/176 374/174/174
f 374/174/174 91/177/177 117/178/178
f 91/177/177 374/174/174 306/176/176
f 201/179/179 117/178/178 28/180/180
f 117/178/178 201/179/179 374/174/174
f 374/174/174 89/181/181 292/175/175
f 89/181/181 374/174/174 201/179/179
f 375/182/182 24/173/173 292/175/175
f 24/173/173 375/182/182 293/183/183
f 375/182/182 89/181/181 298/184/184
f 89/181/181 375/182/182 292/175/175
f 293/183/183 298/184/184 90/185/185
f 298/184/184 293/183/183 375/182/182
f 307/186/186 306/176/176 18/172/172
f 306/176/176 307/186/186 376/187/187
f 317/188/188 307/186/186 92/189/189
f 307/186/186 317/188/188 376/187/187
f 376/187/187 91/177/177 306/176/176
f 91/177/177 376/187/187 317/188/188
f 315/190/190 312/191/191 97/192/192
f 312/191/191 315/190/190 377/193/193
f 96/194/194 377/193/193 315/190/190
f 377/193/193 96/194/194 228/195/195
f 55/196/196 377/193/193 228/195/195
f 377/193/193 55/196/196 310/197/197
f 377/193/193 95/198/198 312/191/191
f 95/198/198 377/193/193 310/197/197
f 378/199/199 27/200/200 131/201/201
f 27/200/200 378/199/199 119/202/202
f 95/198/198 378/199/199 131/201/201
f 378/199/199 95/198/198 310/197/197
f 55/196/196 378/199/199 310/197/197
f 378/199/199 55/196/196 236/203/203
f 236/203/203 119/202/202 378/199/199
f 119/202/202 236/203/203 54/204/204
f 379/205/205 26/206/206 132/207/207
f 26/206/206 379/205/205 140/208/208
f 233/209/209 132/207/207 56/210/210
f 132/207/207 233/209/209 379/205/205
f 379/205/205 58/211/211 140/208/208
f 58/211/211 379/205/205 233/209/209
f 140/208/208 203/212/212 26/206/206
f 203/212/212 140/208/208 380/213/213
f 58/211/211 380/213/213 140/208/208
f 380/213/213 58/211/211 231/214/214
f 231/214/214 204/215/215 380/213/213
f 204/215/215 231/214/214 20/216/216
f 380/213/213 11/217/217 203/212/212
f 11/217/217 380/213/213 204/215/215
f 381/218/218 12/219/219 187/220/220
f 12/219/219 381/218/218 188/221/221
f 141/222/222 187/220/220 20/216/216
f 187/220/220 141/222/222 381/218/218
f 188/221/221 141/222/222 21/223/223
f 141/222/222 188/221/221 381/218/218
f 382/224/224 13/225/225 189/226/226
f 13/225/225 382/224/224 190/227/227
f 239/228/228 189/226/226 21/223/223
f 189/226/226 239/228/228 382/224/224
f 60/229/229 382/224/224 239/228/228
f 382/224/224 60/229/229 153/230/230
f 153/230/230 190/227/227 382/224/224
f 190/227/227 153/230/230 46/231/231
f 142/232/232 143/233/233 5/234/234
f 143/233/233 142/232/232 383/235/235
f 169/236/236 142/232/232 46/231/231
f 142/232/232 169/236/236 383/235/235
f 383/235/235 48/32/32 143/233/233
f 48/32/32 383/235/235 169/236/236
f 384/237/237 21/223/223 170/238/238
f 21/223/223 384/237/237 239/228/228
f 244/239/239 170/238/238 63/240/240
f 170/238/238 244/239/239 384/237/237
f 384/237/237 60/229/229 239/228/228
f 60/229/229 384/237/237 244/239/239
f 385/241/241 23/61/61 291/242/242
f 23/61/61 385/241/241 288/60/60
f 295/243/243 291/242/242 88/244/244
f 291/242/242 295/243/243 385/241/241
f 385/241/241 85/62/62 288/60/60
f 85/62/62 385/241/241 295/243/243
f 386/245/245 30/37/37 171/246/246
f 30/37/37 386/245/245 157/42/42
f 386/245/245 31/247/247 192/248/248
f 31/247/247 386/245/245 171/246/246
f 157/42/42 192/248/248 33/43/43
f 192/248/248 157/42/42 386/245/245
f 387/249/249 33/43/43 192/248/248
f 33/43/43 387/249/249 205/250/250
f 193/251/251 192/248/248 31/247/247
f 192/248/248 193/251/251 387/249/249
f 387/249/249 32/252/252 205/250/250
f 32/252/252 387/249/249 193/251/251
f 388/253/253 35/254/254 134/255/255
f 35/254/254 388/253/253 120/256/256
f 121/257/257 134/255/255 37/258/258
f 134/255/255 121/257/257 388/253/253
f 388/253/253 34/47/47 120/256/256
f 34/47/47 388/253/253 121/257/257
f 389/259/259 34/47/47 121/257/257
f 34/47/47 389/259/259 172/260/260
f 389/259/259 37/258/258 173/261/261
f 37/258/258 389/259/259 121/257/257
f 172/260/260 173/261/261 9/262/262
f 173/261/261 172/260/260 389/259/259
f 135/263/263 134/255/255 35/254/254
f 134/255/255 135/263/263 390/264/264
f 390/264/264 36/265/265 144/266/266
f 36/265/265 390/264/264 135/263/263
f 390/264/264 37/258/258 134/255/255
f 37/258/258 390/264/264 144/266/266
f 391/267/267 26/206/206 123/268/268
f 26/206/206 391/267/267 122/269/269
f 124/270/270 123/268/268 10/271/271
f 123/268/268 124/270/270 391/267/267
f 391/267/267 37/258/258 122/269/269
f 37/258/258 391/267/267 124/270/270
f 174/272/272 169/236/236 46/231/231
f 169/236/236 174/272/272 392/273/273
f 392/273/273 47/274/274 194/275/275
f 47/274/274 392/273/273 174/272/272
f 392/273/273 48/32/32 169/236/236
f 48/32/32 392/273/273 194/275/275
f 206/276/276 211/29/29 48/32/32
f 211/29/29 206/276/276 393/277/277
f 393/277/277 49/278/278 218/279/279
f 49/278/278 393/277/277 206/276/276
f 211/29/29 218/279/279 4/2/2
f 218/279/279 211/29/29 393/277/277
f 218/279/279 338/3/3 4/2/2
f 338/3/3 218/279/279 394/280/280
f 49/278/278 394/280/280 218/279/279
f 394/280/280 49/278/278 219/281/281
f 219/281/281 209/282/282 394/280/280
f 209/282/282 219/281/281 52/15/15
f 394/280/280 108/5/5 338/3/3
f 108/5/5 394/280/280 209/282/282
f 395/283/283 49/278/278 220/284/284
f 49/278/278 395/283/283 219/281/281
f 395/283/283 50/285/285 125/286/286
f 50/285/285 395/283/283 220/284/284
f 219/281/281 125/286/286 52/15/15
f 125/286/286 219/281/281 395/283/283
f 396/287/287 52/15/15 125/286/286
f 52/15/15 396/287/287 136/288/288
f 126/289/289 125/286/286 50/285/285
f 125/286/286 126/289/289 396/287/287
f 396/287/287 51/290/290 136/288/288
f 51/290/290 396/287/287 126/289/289
f 203/212/212 123/268/268 26/206/206
f 123/268/268 203/212/212 397/291/291
f 207/292/292 203/212/212 11/217/217
f 203/212/212 207/292/292 397/291/291
f 397/291/291 10/271/271 123/268/268
f 10/271/271 397/291/291 207/292/292
f 124/270/270 173/261/261 37/258/258
f 173/261/261 124/270/270 398/293/293
f 398/293/293 10/271/271 217/294/294
f 10/271/271 398/293/293 124/270/270
f 398/293/293 9/262/262 173/261/261
f 9/262/262 398/293/293 217/294/294
f 187/220/220 204/215/215 20/216/216
f 204/215/215 187/220/220 399/295/295
f 221/296/296 187/220/220 12/219/219
f 187/220/220 221/296/296 399/295/295
f 399/295/295 11/217/217 204/215/215
f 11/217/217 399/295/295 221/296/296
f 400/297/297 21/223/223 189/226/226
f 21/223/223 400/297/297 188/221/221
f 400/297/297 13/225/225 222/298/298
f 13/225/225 400/297/297 189/226/226
f 188/221/221 222/298/298 12/219/219
f 222/298/298 188/221/221 400/297/297
f 142/232/232 190/227/227 46/231/231
f 190/227/227 142/232/232 401/299/299
f 401/299/299 5/234/234 223/300/300
f 5/234/234 401/299/299 142/232/232
f 401/299/299 13/225/225 190/227/227
f 13/225/225 401/299/299 223/300/300
f 212/31/31 143/233/233 48/32/32
f 143/233/233 212/31/31 402/301/301
f 224/302/302 212/31/31 6/30/30
f 212/31/31 224/302/302 402/301/301
f 402/301/301 5/234/234 143/233/233
f 5/234/234 402/301/301 224/302/302
f 403/303/303 7/304/304 208/305/305
f 7/304/304 403/303/303 342/306/306
f 403/303/303 6/30/30 210/28/28
f 6/30/30 403/303/303 208/305/305
f 342/306/306 210/28/28 4/2/2
f 210/28/28 342/306/306 403/303/303
f 404/307/307 58/211/211 232/308/308
f 58/211/211 404/307/307 231/214/214
f 133/309/309 232/308/308 57/310/310
f 232/308/308 133/309/309 404/307/307
f 404/307/307 20/216/216 231/214/214
f 20/216/216 404/307/307 133/309/309
f 233/209/209 232/308/308 58/211/211
f 232/308/308 233/209/209 405/311/311
f 405/311/311 56/210/210 234/312/312
f 56/210/210 405/311/311 233/209/209
f 405/311/311 57/310/310 232/308/308
f 57/310/310 405/311/311 234/312/312
f 406/313/313 56/210/210 229/314/314
f 56/210/210 406/313/313 234/312/312
f 230/315/315 229/314/314 19/316/316
f 229/314/314 230/315/315 406/313/313
f 406/313/313 57/310/310 234/312/312
f 57/310/310 406/313/313 230/315/315
f 407/317/317 54/204/204 235/318/318
f 54/204/204 407/317/317 227/319/319
f 407/317/317 56/210/210 132/207/207
f 56/210/210 407/317/317 235/318/318
f 227/319/319 132/207/207 26/206/206
f 132/207/207 227/319/319 407/317/317
f 408/320/320 54/204/204 236/203/203
f 54/204/204 408/320/320 235/318/318
f 237/321/321 236/203/203 55/196/196
f 236/203/203 237/321/321 408/320/320
f 408/320/320 56/210/210 235/318/318
f 56/210/210 408/320/320 237/321/321
f 409/322/322 55/196/196 228/195/195
f 55/196/196 409/322/322 237/321/321
f 96/194/194 409/322/322 228/195/195
f 409/322/322 96/194/194 311/323/323
f 19/316/316 409/322/322 311/323/323
f 409/322/322 19/316/316 229/314/314
f 229/314/314 237/321/321 409/322/322
f 237/321/321 229/314/314 56/210/210
f 410/324/324 60/229/229 243/325/325
f 60/229/229 410/324/324 153/230/230
f 167/326/326 243/325/325 62/146/146
f 243/325/325 167/326/326 410/324/324
f 410/324/324 46/231/231 153/230/230
f 46/231/231 410/324/324 167/326/326
f 244/239/239 243/325/325 60/229/229
f 243/325/325 244/239/239 411/327/327
f 411/327/327 63/240/240 245/328/328
f 63/240/240 411/327/327 244/239/239
f 411/327/327 62/146/146 243/325/325
f 62/146/146 411/327/327 245/328/328
f 412/329/329 63/240/240 242/330/330
f 63/240/240 412/329/329 245/328/328
f 241/141/141 242/330/330 14/139/139
f 242/330/330 241/141/141 412/329/329
f 412/329/329 62/146/146 245/328/328
f 62/146/146 412/329/329 241/141/141
f 413/331/331 62/146/146 246/332/332
f 62/146/146 413/331/331 167/326/326
f 413/331/331 59/333/333 152/334/334
f 59/333/333 413/331/331 246/332/332
f 167/326/326 152/334/334 46/231/231
f 152/334/334 167/326/326 413/331/331
f 414/335/335 62/146/146 247/145/145
f 62/146/146 414/335/335 246/332/332
f 248/336/336 247/145/145 61/144/144
f 247/145/145 248/336/336 414/335/335
f 414/335/335 59/333/333 246/332/332
f 59/333/333 414/335/335 248/336/336
f 415/337/337 61/144/144 252/338/338
f 61/144/144 415/337/337 248/336/336
f 67/137/137 415/337/337 252/338/338
f 415/337/337 67/137/137 166/136/136
f 45/135/135 415/337/337 166/136/136
f 415/337/337 45/135/135 238/339/339
f 238/339/339 248/336/336 415/337/337
f 248/336/336 238/339/339 59/333/333
f 416/340/340 69/142/142 257/341/341
f 69/142/142 416/340/340 240/143/143
f 255/132/132 257/341/341 70/130/130
f 257/341/341 255/132/132 416/340/340
f 67/137/137 416/340/340 255/132/132
f 416/340/340 67/137/137 252/338/338
f 416/340/340 61/144/144 240/143/143
f 61/144/144 416/340/340 252/338/338
f 417/342/342 14/139/139 251/343/343
f 14/139/139 417/342/342 254/140/140
f 256/344/344 251/343/343 66/345/345
f 251/343/343 256/344/344 417/342/342
f 70/130/130 417/342/342 256/344/344
f 417/342/342 70/130/130 257/341/341
f 257/341/341 254/140/140 417/342/342
f 254/140/140 257/341/341 69/142/142
f 418/346/346 66/345/345 165/347/347
f 66/345/345 418/346/346 256/344/344
f 249/348/348 165/347/347 44/91/91
f 165/347/347 249/348/348 418/346/346
f 64/134/134 418/346/346 249/348/348
f 418/346/346 64/134/134 258/131/131
f 258/131/131 256/344/344 418/346/346
f 256/344/344 258/131/131 70/130/130
f 419/349/349 65/128/128 259/350/350
f 65/128/128 419/349/349 250/351/351
f 419/349/349 66/345/345 251/343/343
f 66/345/345 419/349/349 259/350/350
f 250/351/351 251/343/343 14/139/139
f 251/343/343 250/351/351 419/349/349
f 420/352/352 65/128/128 260/127/127
f 65/128/128 420/352/352 259/350/350
f 261/353/353 260/127/127 68/92/92
f 260/127/127 261/353/353 420/352/352
f 420/352/352 66/345/345 259/350/350
f 66/345/345 420/352/352 261/353/353
f 421/354/354 68/92/92 182/90/90
f 68/92/92 421/354/354 261/353/353
f 421/354/354 44/91/91 165/347/347
f 44/91/91 421/354/354 182/90/90
f 261/353/353 165/347/347 66/345/345
f 165/347/347 261/353/353 421/354/354
f 422/355/355 71/167/167 272/356/356
f 71/167/167 422/355/355 262/170/170
f 216/357/357 272/356/356 80/358/358
f 272/356/356 216/357/357 422/355/355
f 422/355/355 18/172/172 262/170/170
f 18/172/172 422/355/355 216/357/357
f 273/165/165 272/356/356 71/167/167
f 272/356/356 273/165/165 423/359/359
f 423/359/359 79/166/166 274/360/360
f 79/166/166 423/359/359 273/165/165
f 423/359/359 80/358/358 272/356/356
f 80/358/358 423/359/359 274/360/360
f 424/361/361 79/166/166 270/362/362
f 79/166/166 424/361/361 274/360/360
f 271/363/363 270/362/362 17/150/150
f 270/362/362 271/363/363 424/361/361
f 424/361/361 80/358/358 274/360/360
f 80/358/358 424/361/361 271/363/363
f 425/364/364 72/160/160 275/365/365
f 72/160/160 425/364/364 168/366/366
f 425/364/364 79/166/166 215/163/163
f 79/166/166 425/364/364 275/365/365
f 168/366/366 215/163/163 25/162/162
f 215/163/163 168/366/366 425/364/364
f 426/367/367 72/160/160 276/159/159
f 72/160/160 426/367/367 275/365/365
f 277/368/368 276/159/159 78/152/152
f 276/159/159 277/368/368 426/367/367
f 426/367/367 79/166/166 275/365/365
f 79/166/166 426/367/367 277/368/368
f 427/369/369 78/152/152 269/151/151
f 78/152/152 427/369/369 277/368/368
f 427/369/369 17/150/150 270/362/362
f 17/150/150 427/369/369 269/151/151
f 277/368/368 270/362/362 79/166/166
f 270/362/362 277/368/368 427/369/369
f 428/370/370 77/111/111 278/371/371
f 77/111/111 428/370/370 268/114/114
f 185/372/372 278/371/371 75/373/373
f 278/371/371 185/372/372 428/370/370
f 428/370/370 16/116/116 268/114/114
f 16/116/116 428/370/370 185/372/372
f 279/109/109 278/371/371 77/111/111
f 278/371/371 279/109/109 429/374/374
f 429/374/374 74/110/110 280/375/375
f 74/110/110 429/374/374 279/109/109
f 429/374/374 75/373/373 278/371/371
f 75/373/373 429/374/374 280/375/375
f 430/376/376 74/110/110 265/377/377
f 74/110/110 430/376/376 280/375/375
f 266/378/378 265/377/377 15/94/94
f 265/377/377 266/378/378 430/376/376
f 430/376/376 75/373/373 280/375/375
f 75/373/373 430/376/376 266/378/378
f 431/379/379 76/104/104 281/380/380
f 76/104/104 431/379/379 267/381/381
f 431/379/379 74/110/110 184/107/107
f 74/110/110 431/379/379 281/380/380
f 267/381/381 184/107/107 40/106/106
f 184/107/107 267/381/381 431/379/379
f 432/382/382 76/104/104 282/103/103
f 76/104/104 432/382/382 281/380/380
f 283/383/383 282/103/103 73/98/98
f 282/103/103 283/383/383 432/382/382
f 432/382/382 74/110/110 281/380/380
f 74/110/110 432/382/382 283/383/383
f 433/384/384 73/98/98 264/97/97
f 73/98/98 433/384/384 283/383/383
f 433/384/384 15/94/94 265/377/377
f 15/94/94 433/384/384 264/97/97
f 283/383/383 265/377/377 74/110/110
f 265/377/377 283/383/383 433/384/384
f 434/385/385 85/62/62 294/386/386
f 85/62/62 434/385/385 176/56/56
f 202/387/387 294/386/386 90/185/185
f 294/386/386 202/387/387 434/385/385
f 434/385/385 29/51/51 176/56/56
f 29/51/51 434/385/385 202/387/387
f 295/243/243 294/386/386 85/62/62
f 294/386/386 295/243/243 435/388/388
f 435/388/388 88/244/244 296/389/389
f 88/244/244 435/388/388 295/243/243
f 435/388/388 90/185/185 294/386/386
f 90/185/185 435/388/388 296/389/389
f 436/390/390 88/244/244 191/391/391
f 88/244/244 436/390/390 296/389/389
f 293/183/183 191/391/391 24/173/173
f 191/391/391 293/183/183 436/390/390
f 436/390/390 90/185/185 296/389/389
f 90/185/185 436/390/390 293/183/183
f 437/392/392 90/185/185 297/393/393
f 90/185/185 437/392/392 202/387/387
f 437/392/392 82/394/394 139/395/395
f 82/394/394 437/392/392 297/393/393
f 202/387/387 139/395/395 29/51/51
f 139/395/395 202/387/387 437/392/392
f 438/396/396 90/185/185 298/184/184
f 90/185/185 438/396/396 297/393/393
f 299/397/397 298/184/184 89/181/181
f 298/184/184 299/397/397 438/396/396
f 438/396/396 82/394/394 297/393/393
f 82/394/394 438/396/396 299/397/397
f 439/398/398 89/181/181 201/179/179
f 89/181/181 439/398/398 299/397/397
f 439/398/398 28/180/180 285/399/399
f 28/180/180 439/398/398 201/179/179
f 299/397/397 285/399/399 82/394/394
f 285/399/399 299/397/397 439/398/398
f 300/400/400 286/401/401 83/83/83
f 286/401/401 300/400/400 440/402/402
f 440/402/402 84/88/88 287/86/86
f 84/88/88 440/402/402 300/400/400
f 440/402/402 38/85/85 286/401/401
f 38/85/85 440/402/402 287/86/86
f 441/403/403 83/83/83 301/82/82
f 83/83/83 441/403/403 300/400/400
f 441/403/403 87/79/79 302/404/404
f 87/79/79 441/403/403 301/82/82
f 300/400/400 302/404/404 84/88/88
f 302/404/404 300/400/400 441/403/403
f 180/405/405 302/404/404 87/79/79
f 302/404/404 180/405/405 442/406/406
f 442/406/406 44/91/91 160/89/89
f 44/91/91 442/406/406 180/405/405
f 442/406/406 84/88/88 302/404/404
f 84/88/88 442/406/406 160/89/89
f 443/407/407 87/79/79 303/408/408
f 87/79/79 443/407/407 180/405/405
f 443/407/407 81/409/409 128/410/410
f 81/409/409 443/407/407 303/408/408
f 180/405/405 128/410/410 44/91/91
f 128/410/410 180/405/405 443/407/407
f 444/411/411 87/79/79 304/78/78
f 87/79/79 444/411/411 303/408/408
f 305/412/412 304/78/78 86/71/71
f 304/78/78 305/412/412 444/411/411
f 444/411/411 81/409/409 303/408/408
f 81/409/409 444/411/411 305/412/412
f 445/413/413 86/71/71 179/70/70
f 86/71/71 445/413/413 305/412/412
f 445/413/413 43/21/21 284/414/414
f 43/21/21 445/413/413 179/70/70
f 305/412/412 284/414/414 81/409/409
f 284/414/414 305/412/412 445/413/413
f 314/415/415 309/416/416 94/417/417
f 309/416/416 314/415/415 446/418/418
f 97/192/192 446/418/418 314/415/415
f 446/418/418 97/192/192 312/191/191
f 312/191/191 131/201/201 446/418/418
f 131/201/201 312/191/191 95/198/198
f 446/418/418 27/200/200 309/416/416
f 27/200/200 446/418/418 131/201/201
f 129/419/419 130/420/420 28/180/180
f 130/420/420 129/419/419 447/421/421
f 93/422/422 447/421/421 129/419/419
f 447/421/421 93/422/422 313/423/423
f 313/423/423 314/415/415 447/421/421
f 314/415/415 313/423/423 97/192/192
f 447/421/421 94/417/417 130/420/420
f 94/417/417 447/421/421 314/415/415
f 308/424/424 313/423/423 93/422/422
f 313/423/423 308/424/424 448/425/425
f 19/316/316 448/425/425 308/424/424
f 448/425/425 19/316/316 311/323/323
f 311/323/323 315/190/190 448/425/425
f 315/190/190 311/323/323 96/194/194
f 448/425/425 97/192/192 313/423/423
f 97/192/192 448/425/425 315/190/190
f 316/426/426 117/178/178 91/177/177
f 117/178/178 316/426/426 449/427/427
f 129/419/419 316/426/426 93/422/422
f 316/426/426 129/419/419 449/427/427
f 449/427/427 28/180/180 117/178/178
f 28/180/180 449/427/427 129/419/419
f 317/188/188 316/426/426 91/177/177
f 316/426/426 317/188/188 450/428/428
f 450/428/428 92/189/189 318/429/429
f 92/189/189 450/428/428 317/188/188
f 316/426/426 318/429/429 93/422/422
f 318/429/429 316/426/426 450/428/428
f 118/430/430 318/429/429 92/189/189
f 318/429/429 118/430/430 451/431/431
f 308/424/424 118/430/430 19/316/316
f 118/430/430 308/424/424 451/431/431
f 451/431/431 93/422/422 318/429/429
f 93/422/422 451/431/431 308/424/424
f 324/432/432 321/67/67 100/75/75
f 321/67/67 324/432/432 452/433/433
f 452/433/433 99/434/434 163/435/435
f 99/434/434 452/433/433 324/432/432
f 452/433/433 23/61/61 321/67/67
f 23/61/61 452/433/433 163/435/435
f 453/436/436 100/75/75 325/124/124
f 100/75/75 453/436/436 324/432/432
f 453/436/436 98/122/122 326/437/437
f 98/122/122 453/436/436 325/124/124
f 324/432/432 326/437/437 99/434/434
f 326/437/437 324/432/432 453/436/436
f 319/438/438 326/437/437 98/122/122
f 326/437/437 319/438/438 454/439/439
f 454/439/439 22/155/155 320/440/440
f 22/155/155 454/439/439 319/438/438
f 454/439/439 99/434/434 326/437/437
f 99/434/434 454/439/439 320/440/440
f 327/441/441 319/438/438 98/122/122
f 319/438/438 327/441/441 455/442/442
f 455/442/442 102/156/156 198/154/154
f 102/156/156 455/442/442 327/441/441
f 319/438/438 198/154/154 22/155/155
f 198/154/154 319/438/438 455/442/442
f 456/443/443 98/122/122 328/121/121
f 98/122/122 456/443/443 327/441/441
f 329/444/444 328/121/121 101/117/117
f 328/121/121 329/444/444 456/443/443
f 327/441/441 329/444/444 102/156/156
f 329/444/444 327/441/441 456/443/443
f 322/115/115 329/444/444 101/117/117
f 329/444/444 322/115/115 457/445/445
f 457/445/445 16/116/116 323/148/148
f 16/116/116 457/445/445 322/115/115
f 329/444/444 323/148/148 102/156/156
f 323/148/148 329/444/444 457/445/445
f 333/446/446 177/69/69 105/66/66
f 177/69/69 333/446/446 458/447/447
f 458/447/447 103/22/22 148/20/20
f 103/22/22 458/447/447 333/446/446
f 177/69/69 148/20/20 43/21/21
f 148/20/20 177/69/69 458/447/447
f 459/448/448 105/66/66 334/65/65
f 105/66/66 459/448/448 333/446/446
f 335/449/449 334/65/65 104/58/58
f 334/65/65 335/449/449 459/448/448
f 333/446/446 335/449/449 103/22/22
f 335/449/449 333/446/446 459/448/448
f 331/57/57 335/449/449 104/58/58
f 335/449/449 331/57/57 460/450/450
f 460/450/450 2/10/10 330/17/17
f 2/10/10 460/450/450 331/57/57
f 335/449/449 330/17/17 103/22/22
f 330/17/17 335/449/449 460/450/450
f 461/451/451 106/7/7 339/452/452
f 106/7/7 461/451/451 336/453/453
f 461/451/451 107/12/12 337/8/8
f 107/12/12 461/451/451 339/452/452
f 336/453/453 337/8/8 2/10/10
f 337/8/8 336/453/453 461/451/451
f 462/454/454 106/7/7 340/6/6
f 106/7/7 462/454/454 339/452/452
f 341/455/455 340/6/6 108/5/5
f 340/6/6 341/455/455 462/454/454
f 462/454/454 107/12/12 339/452/452
f 107/12/12 462/454/454 341/455/455
f 463/456/456 108/5/5 209/282/282
f 108/5/5 463/456/456 341/455/455
f 463/456/456 52/15/15 146/13/13
f 52/15/15 463/456/456 209/282/282
f 341/455/455 146/13/13 107/12/12
f 146/13/13 341/455/455 463/456/456
f 344/457/457 172/260/260 9/262/262
f 172/260/260 344/457/457 464/458/458
f 464/458/458 3/39/39 158/44/44
f 3/39/39 464/458/458 344/457/457
f 172/260/260 158/44/44 34/47/47
f 158/44/44 172/260/260 464/458/458
f 465/459/459 4/2/2 154/460/460
f 4/2/2 465/459/459 342/306/306
f 465/459/459 3/39/39 343/461/461
f 3/39/39 465/459/459 154/460/460
f 342/306/306 343/461/461 7/304/304
f 343/461/461 342/306/306 465/459/459
f 175/462/462 343/461/461 3/39/39
f 343/461/461 175/462/462 466/463/463
f 466/463/463 8/464/464 226/465/465
f 8/464/464 466/463/463 175/462/462
f 466/463/463 7/304/304 343/461/461
f 7/304/304 466/463/463 226/465/465
f 467/466/466 9/262/262 225/467/467
f 9/262/262 467/466/466 344/457/457
f 467/466/466 8/464/464 175/462/462
f 8/464/464 467/466/466 225/467/467
f 344/457/457 175/462/462 3/39/39
f 175/462/462 344/457/457 467/466/466
f 1/34/468 110/36/468 3/39/468 154/460/468 4/2/468 145/4/468 106/7/468 336/453/468 2/10/468 109/54/468
f 54/204/468 227/319/468 26/206/468 122/269/468 37/258/468 144/266/468 36/265/468 135/263/468 35/254/468 120/256/468 34/47/468 213/46/468 33/43/468 205/250/468 32/252/468 193/251/468 31/247/468 171/246/468 30/37/468 149/49/468 29/51/468 139/395/468 82/394/468 285/399/468 28/180/468 130/420/468 94/417/468 309/416/468 27/200/468 119/202/468
f 99/434/468 320/440/468 22/155/468 263/158/468 72/160/468 168/366/468 25/162/468 200/169/468 24/173/468 191/391/468 88/244/468 291/242/468 23/61/468 163/435/468
f 42/26/468 112/25/468 53/16/468 137/14/468 52/15/468 136/288/468 51/290/468 126/289/468 50/285/468 220/284/468 49/278/468 206/276/468 48/32/468 194/275/468 47/274/468 174/272/468 46/231/468 152/334/468 59/333/468 238/339/468 45/135/468 138/133/468 64/134/468 249/348/468 44/91/468 128/410/468 81/409/468 284/414/468 43/21/468 111/23/468
f 83/83/468 286/401/468 38/85/468 161/95/468 41/100/468 195/102/468 76/104/468 267/381/468 40/106/468 186/113/468 39/74/468 159/80/468
f 10/271/271 207/292/292 11/217/217 221/296/296 12/219/219 222/298/298 13/225/225 223/300/300 5/234/234 224/302/302 6/30/30 208/305/305 7/304/304 226/465/465 8/464/464 225/467/467 9/262/262 217/294/294
